Coordinates
version=1
nRows=13
nColumns=38
inDegrees=no

Units are S.I. units (second, meters, Newtons, ...)
If the header above contains a line with 'inDegrees', this indicates whether rotational values are in degrees (yes) or radians (no).

endheader
time	pelvis_tilt	pelvis_list	pelvis_rotation	pelvis_tx	pelvis_ty	pelvis_tz	hip_flexion_r	hip_adduction_r	hip_rotation_r	knee_angle_r	ankle_angle_r	subtalar_angle_r	mtp_angle_r	hip_flexion_l	hip_adduction_l	hip_rotation_l	knee_angle_l	ankle_angle_l	subtalar_angle_l	mtp_angle_l	lumbar_extension	lumbar_bending	lumbar_rotation	arm_flex_r	arm_add_r	arm_rot_r	elbow_flex_r	pro_sup_r	wrist_flex_r	wrist_dev_r	arm_flex_l	arm_add_l	arm_rot_l	elbow_flex_l	pro_sup_l	wrist_flex_l	wrist_dev_l
0.57	2.55065	1.41581	-0.975965	0.768193	0.0418444	0.942107	0.243399	0.0857903	-0.29403	0.0784247	-0.0162363	0	0	-0.385764	0.00408802	-0.228803	0.038937	0.18578	0	0	-0.295694	0.101997	0.0958408	0.0333412	-0.250265	0.598209	0.36274	0.988019	0	0	0.0968362	-0.214069	0.164085	0.265196	1.5708	0	0
0.58	2.54518	1.41613	-0.969324	0.768406	0.052029	0.940783	0.244347	0.0905676	-0.319484	0.0858827	-0.0173927	0	0	-0.393863	0.00194875	-0.231837	0.0447085	0.190658	0	0	-0.293762	0.104677	0.0926013	0.0314233	-0.24986	0.598131	0.36422	0.987892	0	0	0.0926958	-0.215569	0.160586	0.268771	1.5708	0	0
0.59	2.54145	1.41531	-0.964615	0.768484	0.0621943	0.939705	0.243989	0.0947617	-0.33879	0.0994221	-0.022452	0	0	-0.401368	-0.000998641	-0.235658	0.0539213	0.195903	0	0	-0.29328	0.108245	0.0894065	0.0297801	-0.250555	0.598473	0.366528	0.988506	0	0	0.0880309	-0.21647	0.158266	0.272601	1.5708	0	0
0.6	2.53747	1.41363	-0.960549	0.768505	0.0723643	0.938839	0.241055	0.0996129	-0.345941	0.114746	-0.0311853	0	0	-0.407923	-0.00467002	-0.240988	0.0664811	0.200886	0	0	-0.293773	0.11264	0.086827	0.0283074	-0.252372	0.599041	0.369662	0.989321	0	0	0.0829041	-0.216736	0.157713	0.275698	1.5708	0	0
0.61	2.53582	1.41184	-0.95653	0.768328	0.0828931	0.9381	0.235016	0.104333	-0.345575	0.127932	-0.0394366	0	0	-0.413312	-0.00955756	-0.244616	0.081981	0.205345	0	0	-0.293476	0.117448	0.081815	0.0260682	-0.253868	0.598698	0.372385	0.989775	0	0	0.076809	-0.217002	0.155694	0.279415	1.5708	0	0
0.62	2.53835	1.41173	-0.955618	0.768098	0.0938372	0.937209	0.229968	0.107269	-0.340369	0.138875	-0.0430455	0	0	-0.416737	-0.0138806	-0.247232	0.0995015	0.209894	0	0	-0.290723	0.120948	0.0751046	0.0226352	-0.25477	0.598731	0.374796	0.990721	0	0	0.0690436	-0.21737	0.150815	0.284091	1.5708	0	0
0.63	2.58264	1.42858	-0.999473	0.768729	0.105431	0.934201	0.235487	0.095347	-0.277634	0.13664	-0.0551238	0	0	-0.407684	-0.00309928	-0.245562	0.120728	0.215381	0	0	-0.273457	0.106764	0.0667376	0.0158053	-0.251501	0.601322	0.376426	0.993107	0	0	0.0557275	-0.22272	0.14353	0.293291	1.5708	0	0
0.64	2.4299	1.39384	-0.830884	0.765868	0.117142	0.937044	0.205951	0.138177	-0.332126	0.129882	-0.0838683	0	0	-0.420545	-0.0550916	-0.255563	0.146939	0.22147	0	0	-0.283838	0.161594	0.0567138	0.0124266	-0.263996	0.601434	0.381216	0.996242	0	0	0.0493311	-0.207678	0.129733	0.289118	1.5708	0	0
0.65	2.5787	1.41655	-0.983816	0.767603	0.128399	0.93461	0.219776	0.102405	-0.294662	0.167433	-0.0849425	0	0	-0.416262	-0.0247349	-0.249557	0.171495	0.216682	0	0	-0.276142	0.124583	0.0494257	0.00795401	-0.256279	0.601658	0.383318	0.997743	0	0	0.0378402	-0.217316	0.115283	0.301263	1.5708	0	0
0.66	2.57325	1.41748	-0.978072	0.767766	0.139532	0.934341	0.217503	0.101457	-0.28411	0.174772	-0.113529	0	0	-0.410202	-0.0315259	-0.25355	0.203292	0.213957	0	0	-0.271747	0.12846	0.046074	0.00356526	-0.258085	0.599589	0.386802	0.999514	0	0	0.0302702	-0.215028	0.10747	0.303234	1.5708	0	0
0.67	2.5631	1.41855	-0.968958	0.768094	0.150734	0.934294	0.216708	0.100253	-0.275964	0.187697	-0.126596	0	0	-0.400093	-0.0396528	-0.258648	0.241639	0.209442	0	0	-0.26683	0.132707	0.0439252	-0.000646795	-0.260382	0.598964	0.390428	1.0023	0	0	0.0223075	-0.212123	0.0966643	0.305724	1.5708	0	0
0.68	2.44535	1.4051	-0.843596	0.766893	0.163274	0.935392	0.208114	0.12138	-0.283144	0.192768	-0.136304	0	0	-0.388475	-0.0759881	-0.268001	0.287299	0.205897	0	0	-0.258849	0.16533	0.0370974	-0.00835361	-0.268598	0.599182	0.394633	1.00643	0	0	0.0125302	-0.201123	0.0805548	0.302524	1.5708	0	0
0.69	2.53682	1.41799	-0.946337	0.769106	0.17359	0.935281	0.219649	0.0993029	-0.266372	0.237022	-0.110965	0	0	-0.372438	-0.0626343	-0.27313	0.335112	0.187321	0	0	-0.257765	0.143129	0.0411699	-0.00852558	-0.265896	0.604384	0.396659	1.0088	0	0	0.00702312	-0.203396	0.0619533	0.308851	1.5708	0	0
